<?xml version="1.0" encoding="utf-8"?>
<svg xmlns="http://www.w3.org/2000/svg" viewBox="0 0 500 500">
  <path d="M 398.862 113.45 C 370.996 100.671 341.599 91.545 311.424 86.308 C 310.863 86.229 310.299 86.499 310.029 86.981 C 306.245 93.693 302.057 102.472 299.13 109.343 C 266.567 104.405 233.465 104.405 200.93 109.343 C 197.654 101.692 193.977 94.228 189.87 86.981 C 189.574 86.499 189.036 86.229 188.473 86.308 C 158.271 91.516 128.876 100.645 101.037 113.45 C 100.796 113.558 100.58 113.72 100.473 113.933 C 44.796 197.128 29.519 278.283 37.009 358.418 C 37.037 358.793 37.278 359.169 37.573 359.41 C 69.977 383.438 106.245 401.772 144.823 413.638 C 145.387 413.825 145.977 413.612 146.326 413.127 C 154.594 401.854 161.95 389.96 168.285 377.449 C 168.555 376.942 168.446 376.295 168.016 375.867 C 167.882 375.76 167.695 375.651 167.533 375.572 C 155.963 371.142 144.768 365.8 134.031 359.598 C 133.413 359.249 133.172 358.471 133.492 357.828 C 133.575 357.637 133.707 357.451 133.895 357.317 C 136.15 355.626 138.406 353.853 140.553 352.08 C 140.931 351.786 141.466 351.706 141.923 351.894 C 212.232 384 288.339 384 357.788 351.894 C 358.245 351.706 358.81 351.76 359.212 352.08 C 361.36 353.853 363.615 355.626 365.867 357.317 C 366.647 357.907 366.594 359.116 365.762 359.598 C 355.05 365.853 343.829 371.195 332.232 375.543 C 331.855 375.679 331.559 375.975 331.427 376.35 C 331.291 376.726 331.318 377.129 331.506 377.449 C 337.949 389.934 345.332 401.854 353.44 413.127 C 353.76 413.612 354.379 413.825 354.943 413.638 C 393.573 401.8 429.896 383.464 462.351 359.41 C 462.674 359.195 462.89 358.82 462.915 358.418 C 471.883 265.772 447.909 185.288 399.398 113.961 C 399.292 113.746 399.103 113.558 398.862 113.45 Z M 178.781 309.612 C 157.599 309.612 140.178 290.175 140.178 266.337 C 140.178 242.471 157.279 223.034 178.781 223.034 C 200.446 223.034 217.707 242.634 217.387 266.337 C 217.387 290.175 200.284 309.612 178.781 309.612 Z M 321.492 309.612 C 300.339 309.612 282.889 290.175 282.889 266.337 C 282.889 242.471 299.99 223.034 321.492 223.034 C 343.157 223.034 360.447 242.634 360.098 266.337 C 360.098 290.175 343.157 309.612 321.492 309.612 Z" style="fill: rgb(246, 176, 61);"/>
</svg>