<?xml version="1.0" encoding="utf-8"?>
<svg xmlns="http://www.w3.org/2000/svg" viewBox="0 0 500 500">
  <path d="M 427.668 27.104 L 72.332 27.104 C 45.581 27.104 23.878 48.807 23.878 75.558 L 23.878 430.891 C 23.878 457.642 45.581 479.346 72.332 479.346 L 427.668 479.346 C 454.419 479.346 476.123 457.642 476.123 430.891 L 476.123 75.558 C 476.123 48.807 454.419 27.104 427.668 27.104 Z M 303.805 414.437 C 295.326 415.951 292.196 410.702 292.196 406.361 C 292.196 400.91 292.398 373.048 292.398 350.537 C 292.398 334.789 287.149 324.795 280.991 319.546 C 318.342 315.407 357.711 310.259 357.711 245.753 C 357.711 227.381 351.15 218.194 340.449 206.384 C 342.165 202.043 347.919 184.175 338.733 160.957 C 324.702 156.616 292.6 179.027 292.6 179.027 C 279.275 175.292 264.84 173.374 250.606 173.374 C 236.372 173.374 221.937 175.292 208.612 179.027 C 208.612 179.027 176.51 156.616 162.479 160.957 C 153.292 184.074 158.946 201.942 160.763 206.384 C 150.062 218.194 145.015 227.381 145.015 245.753 C 145.015 309.956 182.668 315.407 220.019 319.546 C 215.173 323.887 210.833 331.357 209.318 342.057 C 199.728 346.398 175.198 353.868 160.561 328.025 C 151.374 312.076 134.819 310.763 134.819 310.763 C 118.466 310.562 133.709 321.06 133.709 321.06 C 144.611 326.107 152.283 345.489 152.283 345.489 C 162.075 375.471 208.915 365.376 208.915 365.376 C 208.915 379.408 209.117 402.222 209.117 406.361 C 209.117 410.702 206.088 415.951 197.508 414.437 C 130.882 392.127 84.244 328.732 84.244 254.637 C 84.244 161.967 155.11 91.606 247.779 91.606 C 340.449 91.606 415.554 161.967 415.554 254.637 C 415.655 328.732 370.431 392.228 303.805 414.437 Z M 204.776 352.758 C 202.858 353.161 201.041 352.354 200.839 351.042 C 200.637 349.527 201.949 348.215 203.867 347.811 C 205.785 347.609 207.602 348.417 207.804 349.729 C 208.107 351.042 206.795 352.354 204.776 352.758 Z M 195.186 351.849 C 195.186 353.161 193.672 354.272 191.653 354.272 C 189.432 354.474 187.918 353.363 187.918 351.849 C 187.918 350.537 189.432 349.426 191.451 349.426 C 193.369 349.224 195.186 350.335 195.186 351.849 Z M 181.356 350.739 C 180.952 352.051 178.933 352.657 177.217 352.051 C 175.299 351.647 173.987 350.133 174.391 348.821 C 174.794 347.508 176.813 346.903 178.529 347.306 C 180.548 347.912 181.861 349.426 181.356 350.739 Z M 168.939 345.288 C 168.031 346.398 166.113 346.196 164.599 344.682 C 163.084 343.37 162.681 341.452 163.69 340.543 C 164.599 339.433 166.517 339.634 168.031 341.149 C 169.343 342.461 169.848 344.48 168.939 345.288 Z M 159.753 336.101 C 158.845 336.707 157.128 336.101 156.018 334.587 C 154.908 333.073 154.908 331.357 156.018 330.65 C 157.128 329.742 158.845 330.448 159.753 331.962 C 160.864 333.477 160.864 335.294 159.753 336.101 Z M 153.192 326.309 C 152.283 327.218 150.769 326.713 149.658 325.704 C 148.548 324.391 148.346 322.877 149.255 322.171 C 150.163 321.262 151.677 321.767 152.788 322.776 C 153.898 324.089 154.1 325.603 153.192 326.309 Z M 146.428 318.839 C 146.024 319.748 144.712 319.95 143.601 319.243 C 142.289 318.637 141.683 317.527 142.087 316.618 C 142.491 316.013 143.601 315.71 144.914 316.215 C 146.226 316.921 146.832 318.032 146.428 318.839 Z" style="fill: rgb(246, 176, 61);"/>
</svg>