<?xml version="1.0" encoding="utf-8"?>
<svg xmlns="http://www.w3.org/2000/svg" viewBox="0 0 500 500">
  <path d="M 428.348 11.348 C 460.392 11.348 486.411 37.364 486.411 69.407 L 486.411 428.496 C 486.411 460.539 460.391 486.555 428.348 486.555 L 69.259 486.555 C 37.216 486.555 11.2 460.539 11.2 428.496 L 11.2 69.407 C 11.2 37.364 37.215 11.348 69.259 11.348 L 428.348 11.348 Z M 160.13 404.209 L 160.13 194.712 L 90.483 194.712 L 90.483 404.209 L 160.13 404.209 Z M 411.228 404.209 L 411.228 284.071 C 411.228 219.721 376.87 189.785 331.054 189.785 C 294.111 189.785 277.562 210.103 268.296 224.373 L 268.296 194.712 L 198.666 194.712 C 199.59 214.371 198.666 404.209 198.666 404.209 L 268.295 404.209 L 268.295 287.211 C 268.295 280.948 268.746 274.689 270.592 270.212 C 275.616 257.706 287.082 244.75 306.319 244.75 C 331.504 244.75 341.595 263.969 341.595 292.119 L 341.595 404.209 L 411.228 404.209 Z M 125.777 93.694 C 101.948 93.694 86.379 109.36 86.379 129.894 C 86.379 149.995 101.474 166.093 124.855 166.093 L 125.304 166.093 C 149.589 166.093 164.706 149.995 164.706 129.894 C 164.256 109.389 149.632 93.739 125.777 93.694 Z" style="fill: rgb(246, 176, 61);"/>
</svg>