<?xml version="1.0" encoding="utf-8"?>
<svg xmlns="http://www.w3.org/2000/svg" viewBox="0 0 500 500">
  <g/>
  <path class="st0" d="M 263.32 345.526 L 279.869 345.526 C 288.971 345.526 296.419 338.079 296.419 328.976 L 296.419 209.821 C 296.419 206.511 292.281 204.029 289.799 206.511 L 263.32 228.853 L 263.32 345.526 Z M 246.771 247.884 L 191.33 295.05 C 185.538 300.015 176.436 300.015 169.816 295.05 L 130.925 261.951 L 130.925 328.976 C 130.925 338.079 138.372 345.526 147.474 345.526 L 246.771 345.526 L 246.771 247.884 Z M 130.925 209.821 L 130.925 240.437 L 180.573 282.638 L 203.742 262.779 C 203.742 262.779 202.915 261.951 202.915 261.951 L 137.545 206.511 C 135.062 204.029 130.925 206.511 130.925 209.821 Z" style="clip-rule: evenodd; fill-rule: evenodd; fill-opacity: 0; fill: none;"/>
  <path class="st0" d="M 10.27 56.626 L 10.27 160.511 L 154.107 282.374 L 228.022 220.442 C 226.027 220.442 226.027 218.445 224.029 218.445 L 26.251 48.635 C 20.262 42.64 10.27 46.638 10.27 56.626 Z M 128.14 312.339 L 10.27 212.451 L 10.27 414.223 C 10.27 436.198 28.253 454.181 50.227 454.181 L 349.885 454.181 L 349.885 168.501 L 180.081 312.339 C 164.1 324.327 144.121 324.327 128.14 312.339 Z M 389.843 126.548 L 389.843 118.558 L 473.749 48.635 C 479.738 42.64 489.73 48.635 489.73 56.626 L 489.73 414.223 C 489.73 436.198 471.747 454.181 449.773 454.181 L 389.843 454.181 L 389.843 130.546 C 389.843 130.546 389.843 128.544 389.843 126.548 Z" style="clip-rule: evenodd; fill-rule: evenodd; fill: rgb(246, 176, 61);"/>
</svg>