<?xml version="1.0" encoding="utf-8"?>
<svg xmlns="http://www.w3.org/2000/svg" viewBox="0 0 500 500">
  <g/>
  <path class="st0" d="M 263.32 345.526 L 279.869 345.526 C 288.971 345.526 296.419 338.079 296.419 328.976 L 296.419 209.821 C 296.419 206.511 292.281 204.029 289.799 206.511 L 263.32 228.853 L 263.32 345.526 Z M 246.771 247.884 L 191.33 295.05 C 185.538 300.015 176.436 300.015 169.816 295.05 L 130.925 261.951 L 130.925 328.976 C 130.925 338.079 138.372 345.526 147.474 345.526 L 246.771 345.526 L 246.771 247.884 Z M 130.925 209.821 L 130.925 240.437 L 180.573 282.638 L 203.742 262.779 C 203.742 262.779 202.915 261.951 202.915 261.951 L 137.545 206.511 C 135.062 204.029 130.925 206.511 130.925 209.821 Z" style="clip-rule: evenodd; fill-rule: evenodd; fill-opacity: 0; fill: none;"/>
  <title/>
  <g transform="matrix(20.162172, 0, 0, 20.162172, 8.053932, 8.053932)" style="">
    <polygon points="12.153992,10.729553 8.088684,5.041199 5.92041,5.041199 10.956299,12.087097 11.59021,12.97345    15.900635,19.009583 18.068909,19.009583 12.785217,11.615906  " style="fill: rgb(246, 176, 61);"/>
    <path d="M21.15979,1H2.84021C1.823853,1,1,1.823853,1,2.84021v18.31958C1,22.176147,1.823853,23,2.84021,23h18.31958   C22.176147,23,23,22.176147,23,21.15979V2.84021C23,1.823853,22.176147,1,21.15979,1z M15.235352,20l-4.362549-6.213013   L5.411438,20H4l6.246887-7.104675L4,4h4.764648l4.130127,5.881958L18.06958,4h1.411377l-5.95697,6.775635L20,20H15.235352z" style="fill: rgb(246, 176, 61);"/>
  </g>
</svg>